<svg xmlns="http://www.w3.org/2000/svg" width="612" height="612" viewBox="0 0 612 612"><path d="M353.8 172.1c-7.5 0-14.2 2.9-19.3 7.6l-0.1-0.1L219.7 284.8c-5.9 5.5-9.3 13.1-9.3 21.2s3.4 15.7 9.3 21.2L334.4 432.3l0.1-0.1c5.1 4.7 11.9 7.6 19.3 7.6 15.8 0 28.7-12.9 28.7-28.7 0-8.4-3.6-15.8-9.4-21.1l0.1-0.1L281.5 306l91.7-84.1 -0.1-0.1c5.7-5.2 9.4-12.7 9.4-21.1C382.5 185 369.6 172.1 353.8 172.1zM306 0C137 0 0 137 0 306s137 306 306 306 306-137 306-306S475 0 306 0zM306 554.6C168.9 554.6 57.4 443.1 57.4 306S168.9 57.4 306 57.4 554.6 168.9 554.6 306 443.1 554.6 306 554.6z"/></svg>
