<svg xmlns="http://www.w3.org/2000/svg"  width="612" height="612" viewBox="0 0 612 612">
  <path d="M387.1 170.7L306 251.9l-81.1-81.2 -54.1 54.1L251.9 306l-81.1 81.1 54.1 54.1L306 360.1l81.1 81.1 54.1-54.1L360.1 306l81.1-81.1L387.1 170.7zM522.4 89.6c-119.5-119.5-313.3-119.5-432.8 0 -119.5 119.5-119.5 313.3 0 432.8 119.5 119.5 313.3 119.5 432.8 0C641.9 402.9 641.9 209.1 522.4 89.6zM468.3 468.3c-89.6 89.6-234.9 89.6-324.6 0 -89.6-89.6-89.6-234.9 0-324.6 89.6-89.6 234.9-89.6 324.6 0C557.9 233.4 557.9 378.6 468.3 468.3z"/>
</svg>
